grf
version=1
nRows=17
nColumns=37
inDegrees=no
endheader
time	ground_force_1_vx	ground_force_1_vy	ground_force_1_vz	ground_force_1_px	ground_force_1_py	ground_force_1_pz	ground_moment_1_mx	ground_moment_1_my	ground_moment_1_mz	ground_force_2_vx	ground_force_2_vy	ground_force_2_vz	ground_force_2_px	ground_force_2_py	ground_force_2_pz	ground_moment_2_mx	ground_moment_2_my	ground_moment_2_mz	ground_force_3_vx	ground_force_3_vy	ground_force_3_vz	ground_force_3_px	ground_force_3_py	ground_force_3_pz	ground_moment_3_mx	ground_moment_3_my	ground_moment_3_mz	ground_force_4_vx	ground_force_4_vy	ground_force_4_vz	ground_force_4_px	ground_force_4_py	ground_force_4_pz	ground_moment_4_mx	ground_moment_4_my	ground_moment_4_mz
      0.00000000	      0.00000000	     -0.00000000	      0.00000000	      0.00000000	      0.00000000	      0.00000000	      0.00000000	      0.00000000	      0.00000000	     -0.53481734	     14.43845749	   -359.88729858	   -271.95936397	  -1004.38439234	      0.00000000	      0.00000000	      0.00000000	   1497.89226812	     -0.88704856	    -15.19132988	   -366.95767212	   -252.63957968	   -752.54100716	      0.00000000	      0.00000000	     -0.00000000	  -1805.01205589	      0.00000000	     -0.00000000	      0.00000000	      0.00000000	      0.00000000	      0.00000000	      0.00000000	      0.00000000	      0.00000000
      0.01000000	      0.00000000	     -0.00000000	      0.00000000	      0.00000000	      0.00000000	      0.00000000	      0.00000000	      0.00000000	      0.00000000	     -0.71438837	     13.54852486	   -360.94570923	   -272.06678521	  -1004.23715091	      0.00000000	      0.00000000	      0.00000000	   1636.50150931	     -0.88710179	    -15.19133369	   -366.60913086	   -252.43559561	   -753.72784142	      0.00000000	      0.00000000	     -0.00000000	  -1771.24575035	      0.00000000	     -0.00000000	      0.00000000	      0.00000000	      0.00000000	      0.00000000	      0.00000000	      0.00000000	      0.00000000
      0.02000000	      0.00000000	     -0.00000000	      0.00000000	      0.00000000	      0.00000000	      0.00000000	      0.00000000	      0.00000000	      0.00000000	     -1.07052612	     14.25990200	   -358.84033203	   -271.46952871	  -1002.83949490	      0.00000000	      0.00000000	      0.00000000	   1483.98510777	     -1.06473488	    -15.72105685	   -367.65640259	   -251.48936881	   -753.48334620	      0.00000000	      0.00000000	     -0.00000000	  -1825.96765690	      0.00000000	     -0.00000000	      0.00000000	      0.00000000	      0.00000000	      0.00000000	      0.00000000	      0.00000000	      0.00000000
      0.03000000	      0.00000000	     -0.00000000	      0.00000000	      0.00000000	      0.00000000	      0.00000000	      0.00000000	      0.00000000	      0.00000000	     -1.15973663	     14.52793694	   -358.83837891	   -270.17481266	  -1002.98664854	      0.00000000	      0.00000000	      0.00000000	   1485.70148647	     -1.15440386	    -15.63308324	   -368.35440063	   -250.96243434	   -753.79250546	      0.00000000	      0.00000000	     -0.00000000	  -1824.36990296	      0.00000000	     -0.00000000	      0.00000000	      0.00000000	      0.00000000	      0.00000000	      0.00000000	      0.00000000	      0.00000000
      0.04000000	      0.00000000	     -0.00000000	      0.00000000	      0.00000000	      0.00000000	      0.00000000	      0.00000000	      0.00000000	      0.00000000	     -1.33969021	     14.25856781	   -360.24200439	   -269.50192818	  -1003.82576529	      0.00000000	      0.00000000	      0.00000000	   1481.28500784	     -1.50745600	    -15.63272940	   -369.05163574	   -249.84674025	   -753.57646842	      0.00000000	      0.00000000	     -0.00000000	  -1818.84852615	      0.00000000	     -0.00000000	      0.00000000	      0.00000000	      0.00000000	      0.00000000	      0.00000000	      0.00000000	      0.00000000
      0.05000000	      0.00000000	     -0.00000000	      0.00000000	      0.00000000	      0.00000000	      0.00000000	      0.00000000	      0.00000000	      0.00000000	     -1.78282773	     13.90526390	   -357.41992188	   -269.01172684	  -1003.96125115	      0.00000000	     -0.00000000	      0.00000000	   1476.31462617	     -1.50837151	    -15.45686613	   -368.00805664	   -249.38974817	   -754.94910686	      0.00000000	     -0.00000000	     -0.00000000	  -1847.90235213	      0.00000000	     -0.00000000	      0.00000000	      0.00000000	      0.00000000	      0.00000000	      0.00000000	      0.00000000	      0.00000000
      0.06000000	      0.00000000	     -0.00000000	      0.00000000	      0.00000000	      0.00000000	      0.00000000	      0.00000000	      0.00000000	      0.00000000	     -1.24789536	     14.70493984	   -357.06494141	   -268.73231055	  -1003.86562400	      0.00000000	      0.00000000	      0.00000000	   1662.61858945	     -1.68585782	    -15.54391655	   -369.39962769	   -249.28929490	   -753.63828336	      0.00000000	      0.00000000	     -0.00000000	  -1967.93978731	      0.00000000	     -0.00000000	      0.00000000	      0.00000000	      0.00000000	      0.00000000	      0.00000000	      0.00000000	      0.00000000
      0.07000000	      0.00000000	     -0.00000000	      0.00000000	      0.00000000	      0.00000000	      0.00000000	      0.00000000	      0.00000000	      0.00000000	     -0.98248935	     14.35233974	   -356.01232910	   -268.92770773	  -1004.41287653	      0.00000000	      0.00000000	      0.00000000	   1477.61427726	     -1.77545362	    -15.63129696	   -369.39916992	   -248.20373840	   -754.00534470	      0.00000000	      0.00000000	     -0.00000000	  -1948.13793922	      0.00000000	     -0.00000000	      0.00000000	      0.00000000	      0.00000000	      0.00000000	      0.00000000	      0.00000000	      0.00000000
      0.08000000	      0.00000000	     -0.00000000	      0.00000000	      0.00000000	      0.00000000	      0.00000000	      0.00000000	      0.00000000	      0.00000000	     -1.42736816	     14.35331440	   -354.61370850	   -269.04453449	  -1002.48286667	      0.00000000	      0.00000000	      0.00000000	   1439.25546043	     -2.65789882	    -15.36748577	   -369.40625000	   -247.86133272	   -753.95878554	      0.00000000	      0.00000000	     -0.00000000	  -1689.04263706	      0.00000000	     -0.00000000	      0.00000000	      0.00000000	      0.00000000	      0.00000000	      0.00000000	      0.00000000	      0.00000000
      0.09000000	      0.00000000	     -0.00000000	      0.00000000	      0.00000000	      0.00000000	      0.00000000	      0.00000000	      0.00000000	      0.00000000	     -1.78493965	     14.61301327	   -357.75973511	   -268.54271649	  -1004.37534781	      0.00000000	      0.00000000	      0.00000000	   1331.50987275	     -1.86625167	    -15.89514525	   -370.44116211	   -247.57686930	   -754.25920777	      0.00000000	      0.00000000	     -0.00000000	  -2073.47766471	      0.00000000	     -0.00000000	      0.00000000	      0.00000000	      0.00000000	      0.00000000	      0.00000000	      0.00000000	      0.00000000
      0.10000000	      0.00000000	     -0.00000000	      0.00000000	      0.00000000	      0.00000000	      0.00000000	      0.00000000	      0.00000000	      0.00000000	     -1.78341603	     14.43515778	   -358.11816406	   -267.59687821	  -1004.36663822	      0.00000000	      0.00000000	      0.00000000	   1412.56384138	     -2.04220431	    -15.54400045	   -372.53262329	   -247.11533343	   -753.03915258	      0.00000000	      0.00000000	     -0.00000000	  -1888.10652808	      0.00000000	     -0.00000000	      0.00000000	      0.00000000	      0.00000000	      0.00000000	      0.00000000	      0.00000000	      0.00000000
      0.11000000	      0.00000000	     -0.00000000	      0.00000000	      0.00000000	      0.00000000	      0.00000000	      0.00000000	      0.00000000	      0.00000000	     -2.04922605	     14.78345108	   -358.47766113	   -268.15890493	  -1003.53202272	      0.00000000	     -0.00000000	      0.00000000	   1315.87916876	     -1.95233424	    -15.80819685	   -372.89392090	   -247.46283114	   -753.48954923	      0.00000000	      0.00000000	     -0.00000000	  -1994.43487575	      0.00000000	     -0.00000000	      0.00000000	      0.00000000	      0.00000000	      0.00000000	      0.00000000	      0.00000000	      0.00000000
      0.12000000	      0.00000000	     -0.00000000	      0.00000000	      0.00000000	      0.00000000	      0.00000000	      0.00000000	      0.00000000	      0.00000000	     -1.96075737	     14.25618362	   -358.12817383	   -266.80620604	  -1003.66001542	      0.00000000	      0.00000000	      0.00000000	   1548.04282387	     -2.74547402	    -15.45932269	   -374.98883057	   -247.40382444	   -752.45207568	      0.00000000	     -0.00000000	     -0.00000000	  -1862.25197242	      0.00000000	     -0.00000000	      0.00000000	      0.00000000	      0.00000000	      0.00000000	      0.00000000	      0.00000000	      0.00000000
      0.13000000	      0.00000000	     -0.00000000	      0.00000000	      0.00000000	      0.00000000	      0.00000000	      0.00000000	      0.00000000	      0.00000000	     -1.78421021	     14.34999466	   -356.75994873	   -268.12190609	  -1001.36464696	      0.00000000	      0.00000000	      0.00000000	   1592.15819833	     -2.74919813	    -15.54461646	   -375.67724609	   -245.95886380	   -752.44366962	      0.00000000	      0.00000000	     -0.00000000	  -1893.50177099	      0.00000000	     -0.00000000	      0.00000000	      0.00000000	      0.00000000	      0.00000000	      0.00000000	      0.00000000	      0.00000000
      0.14000000	      0.00000000	     -0.00000000	      0.00000000	      0.00000000	      0.00000000	      0.00000000	      0.00000000	      0.00000000	      0.00000000	     -1.96155155	     13.55537224	   -358.81372070	   -267.51780940	  -1003.12289575	      0.00000000	      0.00000000	      0.00000000	   1608.64814842	     -2.83423512	    -15.54731154	   -374.29406738	   -245.92209544	   -754.78327610	      0.00000000	      0.00000000	     -0.00000000	  -1743.00294100	      0.00000000	     -0.00000000	      0.00000000	      0.00000000	      0.00000000	      0.00000000	      0.00000000	      0.00000000	      0.00000000
      0.15000000	      0.00000000	     -0.00000000	      0.00000000	      0.00000000	      0.00000000	      0.00000000	      0.00000000	      0.00000000	      0.00000000	     -2.14563227	     14.17516613	   -355.99176025	   -267.12330913	  -1002.34939612	      0.00000000	      0.00000000	      0.00000000	   1343.47495560	     -2.75100297	    -15.71548247	   -374.62829590	   -246.73243028	   -754.01914342	      0.00000000	      0.00000000	     -0.00000000	  -1921.16726580	      0.00000000	     -0.00000000	      0.00000000	      0.00000000	      0.00000000	      0.00000000	      0.00000000	      0.00000000	      0.00000000
      0.16000000	      0.00000000	     -0.00000000	      0.00000000	      0.00000000	      0.00000000	      0.00000000	      0.00000000	      0.00000000	      0.00000000	     -2.31458259	     14.61372089	   -357.37451172	   -267.12796368	  -1004.93136522	      0.00000000	      0.00000000	     -0.00000000	   1305.53858151	     -2.75212447	    -15.45941424	   -374.29464722	   -244.83650690	   -754.60473995	      0.00000000	     -0.00000000	     -0.00000000	  -1845.49782247	      0.00000000	     -0.00000000	      0.00000000	      0.00000000	      0.00000000	      0.00000000	      0.00000000	      0.00000000	      0.00000000
